<svg enable-background="new 0 0 400 400" viewBox="0 0 400 400" xmlns="http://www.w3.org/2000/svg"><path d="m0 .11h400v400h-400z" fill="#ffd9d2"/><path d="m339.6 292.31c-7.56-8.11-23.59-12.46-24-24.61-.27-7.9 4.4-12.18-3.07-18.92-18.05-16.3-45.86-18.21-69.61-11.4-23.74 6.81-42.72 20.45-69.11 19.63-14.37-.45-27.73-5.69-41.96-6.67-4.38-.3-8.48-.04-12.31.71-14.36 2.83-27.04 13.44-31.81 25.23-3.87 9.56 1.07 18.99-5 28.35-6.48 9.98-19.23 16.9-22.44 28.42-3.86 13.82 10.88 25.84 26.71 26.22 10.07.24 28.75-1 37.31-5.77 10.42-5.81 20.67-6.2 32.81-5.98 23.12.42 46.24 4.42 69.07 7.27 19.56 2.44 38.83 6.05 58.65 6.51 14.56.34 26.91.49 34.79-11.66 9.41-14.54 35.83-40.32 19.97-57.33" fill="#ffc2b8"/><path d="m50.12 330h299.59" fill="none" stroke="#3f5666" stroke-width="1.6"/><path d="m301.1 86.96s-7.26-3.94-7.38-5.85c-.09-1.59 2.21-7.31 9.64 3.39z" fill="#fff"/><path d="m301.1 86.96s-7.26-3.94-7.38-5.85c-.09-1.59 2.21-7.31 9.64 3.39z" fill="none" stroke="#3f5666" stroke-miterlimit="10" stroke-width=".75"/><path d="m318.01 149.61 20.95-30.96-35.68-35.03-3.06 2.87 23.21 31.21-17.13 28.52s-6.53 9.14-.08 13c0-.01 7.38-3.33 11.79-9.61" fill="#ff674d"/><path d="m288.52 332.7 2.55.82-.47 4.09.52 1.97 5.84 7.54-12-7.24z" fill="#ff674d"/><path d="m278.28 329.46-2.67-.01-.84 5.03-2.12 1.7-7.92 4.32 13.67-3.1z" fill="#ff674d"/><path d="m306.93 218.68 1.73 62.14-17.36 56.59-5.2-2.43 9.02-50.34-18.92-64.06z" fill="#fff" stroke="#3f5666" stroke-miterlimit="10" stroke-width=".75"/><path d="m88.24 331.63 2.25.18.4 3.45.81 1.51 6.22 5.08-11.22-3.65z" fill="#3f5666"/><path d="m100.06 327.62 2 1.05-.98 3.32.15 1.72 3.75 7.1-8.91-7.75z" fill="#3f5666"/><g stroke="#3f5666"><path d="m77.29 207.52 10.47 63.35-1.87 63.56h5.43l9.56-65.81 2.66-61.1z" fill="#fff" stroke-miterlimit="10" stroke-width=".75"/><path d="m123.51 202.99 9.79 62.73-29.13 64.8-5.84-1.67 19.34-61-17.52-55.71-.65-3.55z" fill="#fff" stroke-miterlimit="10" stroke-width=".75"/><path d="m289.46 223.18-11.68 59.81 1.56 50.69-6.15-.56-7.52-52.03-5.34-63.5z" fill="#fff" stroke-miterlimit="10" stroke-width=".75"/></g><path d="m308.66 227.95-50.66-4.37 4.12-37.26-9.87-37.11 22.48-7.84h35.32l-1.62 51.42z" fill="#ff674d"/><path d="m285.59 132.58 1.51 9.99s-12.93 7.29-11.21 2.56c1.59-4.38 3.21-13.26 3.21-13.26z" fill="#fff"/><path d="m285.59 132.58 1.51 9.99s-12.93 7.29-11.21 2.56c1.59-4.38 3.21-13.26 3.21-13.26z" fill="none" stroke="#3f5666" stroke-miterlimit="10" stroke-width=".75"/><path d="m286.82 121.4c.57 2.07 1.72 6.11.31 8.61-1.4 2.5-3.6 6.98-6.72 7.78s-4.59-2.06-4.93-3.31c-.55-2.01 0-12.92 5.1-15.02 3.86-1.6 5.81.37 6.24 1.94" fill="#fff"/><path d="m286.82 121.4c.57 2.07 1.72 6.11.31 8.61-1.4 2.5-3.6 6.98-6.72 7.78s-4.59-2.06-4.93-3.31c-.55-2.01 0-12.92 5.1-15.02 3.86-1.6 5.81.37 6.24 1.94z" fill="none" stroke="#3f5666" stroke-miterlimit="10" stroke-width=".75"/><path d="m278.43 121.23s1.89 2.32 5.3 1.87c3.42-.46 2.63 2.78 2.6 3.14-.04.37-1.13 4.99.01 5.2 1.15.2 3.34-5.47 2.07-9.58-1.24-4.11-6.83-20.62-9.98-.63" fill="#3f5666"/><path d="m201.24 66.38c-12.94-2.28-25.19-8.86-37.84-12.72-4.7-1.7-9.44-3.31-14.13-5.02-1.74-.63-2.63.13-3.18 1.63-.55 1.51-.27 2.62 1.38 3.33 15.52 6.72 31.05 13.42 46.55 20.2 2.28.69 7.15 5 2.15 5.48-17.17-4.93-33.91-12.36-50.77-18.53-4.09-2.15-5.52 3.11-1.69 4.5 19.35 7.41 61.86 36.47 80.52 25.4 11.35-5.97 69.3 28.16 84.92 33.9 9.79 4.53 19.74 8.73 29.67 12.96 12.2 5.54 20.48-13.69 9.35-19.18-4.95-2.56-10.14-4.75-15.43-6.51-33.23-11.53-68.29-18.79-99.92-34.38-.54-.26-1.15-1-1.19-1.55-.35-4.98-3.04-8.6-6.67-11.66-11.07-9.33-25.48-12.33-38.95-16.57-10.78-3.23-21.6-6.34-32.4-9.49-3.77-1.48-5.23 3.81-1.61 4.56 7.89 3.06 60.15 19.89 49.24 23.65" fill="#fff"/><path d="m201.24 66.38c-12.94-2.28-25.19-8.86-37.84-12.72-4.7-1.7-9.44-3.31-14.13-5.02-1.74-.63-2.63.13-3.18 1.63-.55 1.51-.27 2.62 1.38 3.33 15.52 6.72 31.05 13.42 46.55 20.2 2.28.69 7.15 5 2.15 5.48-17.17-4.93-33.91-12.36-50.77-18.53-4.09-2.15-5.52 3.11-1.69 4.5 19.35 7.41 61.86 36.47 80.52 25.4 11.35-5.97 69.3 28.16 84.92 33.9 9.79 4.53 19.74 8.73 29.67 12.96 12.2 5.54 20.48-13.69 9.35-19.18-4.95-2.56-10.14-4.75-15.43-6.51-33.23-11.53-68.29-18.79-99.92-34.38-.54-.26-1.15-1-1.19-1.55-.35-4.98-3.04-8.6-6.67-11.66-11.07-9.33-25.48-12.33-38.95-16.57-10.78-3.23-21.6-6.34-32.4-9.49-3.77-1.48-5.23 3.81-1.61 4.56 7.89 3.06 60.15 19.89 49.24 23.65z" fill="none" stroke="#3f5666" stroke-miterlimit="10"/><path d="m239.52 100.17s4.7-6.8 3.94-8.55c-.64-1.47-5.27-5.53-7.07 7.37z" fill="#fff"/><path d="m239.52 100.17s4.7-6.8 3.94-8.55c-.64-1.47-5.27-5.53-7.07 7.37z" fill="none" stroke="#3f5666" stroke-miterlimit="10" stroke-width=".75"/><path d="m252.75 163.7-32.68-18.15 15.99-47.38 4.03 1.17-6.59 38.34 28.17 17.69s9.95 5.21 5.96 11.56c-.01 0-8.1.38-14.88-3.23" fill="#ff674d"/><path d="m114.91 170.88 6.5 12.09 42.28-12.85-.98-3.55-34.12 4.86-15.24-25.05s-3.11-6.12-7.47-6.2l-.03-.08-18.58.1s-11.76 1.6-14.84 11.53c-3.08 9.92 4.88 35.79 4.88 35.79l.16 33.83 49.45-8.53-10.95-36.81z" fill="#ffd9d2" stroke="#3f5666" stroke-miterlimit="10" stroke-width=".75"/><path d="m84.2 141.44c-.38 1.81 6.98 2.89 7.32 1.07 1-5.28.64-9.32.64-9.32l-5.14-2.8s-2.03 7.25-2.82 11.05" fill="#fff"/><path d="m84.2 141.44c-.38 1.81 6.98 2.89 7.32 1.07 1-5.28.64-9.32.64-9.32l-5.14-2.8s-2.03 7.25-2.82 11.05z" fill="none" stroke="#3f5666" stroke-miterlimit="10" stroke-width=".75"/><path d="m90.77 136.03c.5.12 4.96 1.57 6-.57 1.04-2.13 2.01-10.43 1.24-12.6-.77-2.16-4.81-1.98-6.57-1.51-1.76.46-6.23 2.68-4.96 11.17-.01 0 1.63 2.85 4.29 3.51" fill="#fff"/><path d="m90.77 136.03c.5.12 4.96 1.57 6-.57 1.04-2.13 2.01-10.43 1.24-12.6-.77-2.16-4.81-1.98-6.57-1.51-1.76.46-6.23 2.68-4.96 11.17-.01 0 1.63 2.85 4.29 3.51z" fill="none" stroke="#3f5666" stroke-miterlimit="10" stroke-width=".75"/><path d="m161.96 167.05s6.13-3.96 7.67-3.25c1.31.6 4.84 4.76-6.67 6.02z" fill="#fff"/><path d="m161.96 167.05s6.13-3.96 7.67-3.25c1.31.6 4.84 4.76-6.67 6.02z" fill="none" stroke="#3f5666" stroke-miterlimit="10" stroke-width=".75"/><path d="m157.97 132.23c-11.88 10.33-23.78 20.64-35.61 31.03-2.31 2.33-.54 5.54-3.52 8.18-18.59 21.13-43.8 34.9-65.73 52.2-3.86 2.85-7.54 5.96-11.21 9.06-11.06 8.61 4.8 25.8 14.64 16.02 21.15-18.69 38.65-41.19 60.02-59.67 3.6-3.14 7.67-5.79 11.74-8.31 4.11-2.67 9.67-.5 13.39-4.04 23.26-18.06 44.56-38.02 60.85-62.82 3.19-4.87 11.5-18.29-.3-16.86-3.69.66-6.68 2.72-9.44 5.1-11.61 10.04-23.18 20.13-34.76 30.2-.01-.02-.04-.06-.07-.09" fill="#fff" stroke="#3f5666" stroke-miterlimit="10"/><path d="m130.25 164.65s5.8-3.83 7.15-3.2c1.14.52 4.08 4.31-6.4 5.76z" fill="#fff"/><path d="m130.25 164.65s5.8-3.83 7.15-3.2c1.14.52 4.08 4.31-6.4 5.76z" fill="none" stroke="#3f5666" stroke-miterlimit="10" stroke-width=".75"/><path d="m72.35 157.15 18.5 27.61 42.22-16.71-2.78-4.44-33.47 8.67-12.8-20.31" fill="none" stroke="#3f5666" stroke-miterlimit="10"/><path d="m72.35 157.15 18.5 27.61 42.22-16.71-2.78-4.44-33.47 8.67-12.8-20.31" fill="#ffd9d2" stroke="#3f5666" stroke-miterlimit="10" stroke-width=".75"/><path d="m91.79 121.9s-1.5 7.73-6.2 8.26c0 0-6.2-14.46 8.33-14.46 0 0 8.2 2.07 4.66 9.23 0 0-4.72-.96-6.79-3.03" fill="#ff674d"/><path d="m87.66 117.77c-2.28 0-4.13-1.85-4.13-4.13s1.85-4.13 4.13-4.13 4.13 1.85 4.13 4.13-1.85 4.13-4.13 4.13" fill="#ff674d"/></svg>